<?xml version="1.0" encoding="iso-8859-1"?>
<!-- Generator: Adobe Illustrator 19.0.0, SVG Export Plug-In . SVG Version: 6.00 Build 0)  -->
<svg version="1.1" id="Layer_1" xmlns="http://www.w3.org/2000/svg" xmlns:xlink="http://www.w3.org/1999/xlink" x="0px" y="0px"
	 viewBox="0 0 323.162 323.162" style="enable-background:new 0 0 323.162 323.162;" xml:space="preserve">
<g id="XMLID_1699_">
	<g id="XMLID_1700_">
		<path id="XMLID_1701_" style="fill:#FF5959;" d="M227.478,61.547c0,11.123-9.017,20.141-20.141,20.141
			s-20.141-9.017-20.141-20.141c0-15.356,20.141-30.928,20.141-30.928S227.478,46.191,227.478,61.547z"/>
		<path id="XMLID_1702_" style="fill:#FF5959;" d="M135.966,61.547c0,11.123-9.017,20.141-20.141,20.141s-20.14-9.018-20.14-20.141
			c0-15.356,20.141-30.928,20.141-30.928S135.966,46.191,135.966,61.547z"/>
	</g>
	<circle id="XMLID_1703_" style="fill:#FF5959;" cx="161.581" cy="43.432" r="35.596"/>
	<rect id="XMLID_598_" x="33.554" y="133.458" style="fill:#FFFEB9;" width="256.056" height="160.018"/>
	<path id="XMLID_1704_" style="fill:#FFE165;" d="M271.268,66.154H51.894c-16.557,0-29.98,13.422-29.98,29.98v40.514h279.333V96.134
		C301.248,79.576,287.826,66.154,271.268,66.154z"/>
	<g id="XMLID_1705_">
		<path id="XMLID_1706_" style="fill:#FFE165;" d="M21.915,129.581v75.514c0,10.359,9.106,18.835,20.235,18.835l0,0
			c11.129,0,20.235-8.476,20.235-18.835v-75.514H21.915z"/>
		<path id="XMLID_1707_" style="fill:#FFE165;" d="M101.758,129.581v64.82c0,10.359,9.106,18.835,20.235,18.835l0,0
			c11.129,0,20.235-8.476,20.235-18.835v-64.82H101.758z"/>
		<path id="XMLID_1708_" style="fill:#FFE165;" d="M141.679,129.581v42.174c0,10.359,9.106,18.835,20.235,18.835l0,0
			c11.129,0,20.235-8.476,20.235-18.835v-42.174L141.679,129.581L141.679,129.581z"/>
		<path id="XMLID_1709_" style="fill:#FFE165;" d="M61.836,129.581v45.985c0,10.359,9.106,18.835,20.236,18.835l0,0
			c11.129,0,20.235-8.476,20.235-18.835v-45.985L61.836,129.581L61.836,129.581z"/>
		<path id="XMLID_592_" style="fill:#FFE165;" d="M301.248,129.581v75.514c0,10.359-8.439,18.835-19.569,18.835l0,0
			c-11.129,0-20.235-8.476-20.235-18.835v-75.514H301.248z"/>
		<path id="XMLID_591_" style="fill:#FFE165;" d="M222.072,129.581v64.82c0,10.359-9.106,18.835-20.235,18.835l0,0
			c-11.129,0-20.235-8.476-20.235-18.835v-64.82H222.072z"/>
		<path id="XMLID_590_" style="fill:#FFE165;" d="M261.993,129.581v45.985c0,10.359-9.106,18.835-20.236,18.835l0,0
			c-11.129,0-20.235-8.476-20.235-18.835v-45.985L261.993,129.581L261.993,129.581z"/>
	</g>
	<g id="XMLID_1710_">
		<circle id="XMLID_1711_" style="fill:#FF5959;" cx="41.859" cy="269.183" r="23.944"/>
		<circle id="XMLID_1712_" style="fill:#FF5959;" cx="89.748" cy="269.183" r="23.944"/>
		<circle id="XMLID_1713_" style="fill:#FF5959;" cx="137.637" cy="269.183" r="23.944"/>
		<circle id="XMLID_1714_" style="fill:#FF5959;" cx="185.526" cy="269.183" r="23.944"/>
		<circle id="XMLID_1715_" style="fill:#FF5959;" cx="233.415" cy="269.183" r="23.944"/>
		<circle id="XMLID_1716_" style="fill:#FF5959;" cx="281.304" cy="269.183" r="23.944"/>
	</g>
	<g id="XMLID_1719_">
		<path id="XMLID_1718_" style="fill:#5FD2DB;" d="M301.312,315.327H21.851C9.783,315.327,0,305.544,0,293.476l0,0
			c0-12.068,9.783-21.851,21.851-21.851h279.46c12.068,0,21.851,9.783,21.851,21.851l0,0
			C323.163,305.544,313.38,315.327,301.312,315.327z"/>
	</g>
</g>
<g>
</g>
<g>
</g>
<g>
</g>
<g>
</g>
<g>
</g>
<g>
</g>
<g>
</g>
<g>
</g>
<g>
</g>
<g>
</g>
<g>
</g>
<g>
</g>
<g>
</g>
<g>
</g>
<g>
</g>
</svg>
