<?xml version="1.0" encoding="UTF-8" standalone="no"?>
<svg
   xmlns:dc="http://purl.org/dc/elements/1.1/"
   xmlns:cc="http://creativecommons.org/ns#"
   xmlns:rdf="http://www.w3.org/1999/02/22-rdf-syntax-ns#"
   xmlns:svg="http://www.w3.org/2000/svg"
   xmlns="http://www.w3.org/2000/svg"
   xmlns:sodipodi="http://sodipodi.sourceforge.net/DTD/sodipodi-0.dtd"
   xmlns:inkscape="http://www.inkscape.org/namespaces/inkscape"
   version="1.1"
   id="Layer_1"
   x="0px"
   y="0px"
   viewBox="0 0 516 516"
   style="enable-background:new 0 0 516 516;"
   xml:space="preserve"
   sodipodi:docname="robot.svg"
   inkscape:version="1.0.1 (c497b03c, 2020-09-10)"><metadata
   id="metadata1096"><rdf:RDF><cc:Work
       rdf:about=""><dc:format>image/svg+xml</dc:format><dc:type
         rdf:resource="http://purl.org/dc/dcmitype/StillImage" /><dc:title></dc:title></cc:Work></rdf:RDF></metadata><defs
   id="defs1094" /><sodipodi:namedview
   pagecolor="#ffffff"
   bordercolor="#666666"
   borderopacity="1"
   objecttolerance="10"
   gridtolerance="10"
   guidetolerance="10"
   inkscape:pageopacity="0"
   inkscape:pageshadow="2"
   inkscape:window-width="1615"
   inkscape:window-height="898"
   id="namedview1092"
   showgrid="false"
   inkscape:zoom="1.0729879"
   inkscape:cx="258"
   inkscape:cy="258"
   inkscape:window-x="0"
   inkscape:window-y="25"
   inkscape:window-maximized="0"
   inkscape:current-layer="Layer_1" />
<path
   style="fill:#384bb6;fill-opacity:1"
   d="M498,476c0,22-18,40-40,40H58c-22,0-40-18-40-40V92c0-22,18-40,40-40h400c22,0,40,18,40,40V476z"
   id="path1033" />
<g
   id="g1039"
   style="fill:#6976c3;fill-opacity:1">
	<path
   style="fill:#6976c3;fill-opacity:1"
   d="M458,52h-24c22,0,40,18,40,40v384c0,22-18,40-40,40h24c22,0,40-18,40-40V92C498,70,480,52,458,52z"
   id="path1035" />
	<path
   style="fill:#6976c3;fill-opacity:1"
   d="M90,476c-17.644,0-32-14.356-32-32V340c0-8.824,7.176-16,16-16s16,7.176,16,16v104h336V340   c0-8.824,7.176-16,16-16s16,7.176,16,16v104c0,17.644-14.356,32-32,32H90z"
   id="path1037" />
</g>
<path
   style="fill:#F5F5F5;"
   d="M426,468H90c-13.236,0-24-10.764-24-24V340c0-4.416,3.584-8,8-8s8,3.584,8,8v104c0,4.416,3.588,8,8,8  h336c4.416,0,8-3.584,8-8V340c0-4.416,3.584-8,8-8s8,3.584,8,8v104C450,457.236,439.236,468,426,468z"
   id="path1041" />
<path
   style="fill:#1E2C33;"
   d="M102,280c-8.824,0-16-7.176-16-16v-84c0-8.824,7.176-16,16-16h108c8.824,0,16,7.176,16,16v84  c0,8.824-7.176,16-16,16H102z"
   id="path1043" />
<path
   style="fill:#F5F5F5;"
   d="M218,264c0,4.416-3.584,8-8,8H102c-4.416,0-8-3.584-8-8v-84c0-4.416,3.584-8,8-8h108  c4.416,0,8,3.584,8,8V264z"
   id="path1045" />
<path
   style="fill:#1E2C33;"
   d="M306,280c-8.824,0-16-7.176-16-16v-84c0-8.824,7.176-16,16-16h108c8.824,0,16,7.176,16,16v84  c0,8.824-7.176,16-16,16H306z"
   id="path1047" />
<path
   style="fill:#F5F5F5;"
   d="M422,264c0,4.416-3.584,8-8,8H306c-4.416,0-8-3.584-8-8v-84c0-4.416,3.584-8,8-8h108  c4.416,0,8,3.584,8,8V264z"
   id="path1049" />
<g
   id="g1055">
	<circle
   style="fill:#808080;"
   cx="360"
   cy="222"
   r="12"
   id="circle1051" />
	<circle
   style="fill:#808080;"
   cx="156"
   cy="222"
   r="12"
   id="circle1053" />
</g>
<path
   style="fill:#E6E6E6;"
   d="M282,52h-16c0-14.816-15.66-28-28-28V8C258.348,8,282,27.22,282,52z"
   id="path1057" />
<circle
   style="fill:#384bb6;fill-opacity:1"
   cx="226"
   cy="16"
   r="16"
   id="circle1059" />
<g
   id="g1061">
</g>
<g
   id="g1063">
</g>
<g
   id="g1065">
</g>
<g
   id="g1067">
</g>
<g
   id="g1069">
</g>
<g
   id="g1071">
</g>
<g
   id="g1073">
</g>
<g
   id="g1075">
</g>
<g
   id="g1077">
</g>
<g
   id="g1079">
</g>
<g
   id="g1081">
</g>
<g
   id="g1083">
</g>
<g
   id="g1085">
</g>
<g
   id="g1087">
</g>
<g
   id="g1089">
</g>
</svg>
